<?xml version="1.0" encoding="utf-8"?>
<?xml-stylesheet type="text/xsl" href="rss1.xsl"?>
<rss version="2.0" xmlns:atom="http://www.w3.org/2005/Atom" xmlns:content="http://purl.org/rss/1.0/modules/content/" xmlns:dc="http://purl.org/dc/elements/1.1/" xmlns:media="http://search.yahoo.com/mrss/">
<channel>
 <title>Getty</title>
 <link>http://www.gettyimg.com/</link>
 <atom:link href="http://www.gettyimg.com/" rel="self" type="application/rss+xml" />

 
                <item>
                <title><![CDATA[【Requests】[REQ VID] - LALI - Disciplina Tour en Vivo desde Buenos Aires Star+]]></title>
                <link><![CDATA[https://sharemania.us/threads/lali-disciplina-tour-en-vivo-desde-buenos-aires-star.224639/]]></link>
                <description><![CDATA[<article>
<blockquote class="messageText SelectQuoteContainer ugc baseHtml">
hi! i see that this show was already posted, but unfortunately i need the permission of the creator to download it... if someone can share this with me, i apreciate it please
<div class="messageTextEndMarker">&nbsp;</div>
</blockquote>
</article>]]></description>
                <author><![CDATA[Xwangb]]></author>
                </item>

                
                <item>
                <title><![CDATA[【Apple Music】WEB-RiP - Burak Yeter - Friday Night (1080p)]]></title>
                <link><![CDATA[https://sharemania.us/threads/burak-yeter-friday-night-1080p.224642/]]></link>
                <description><![CDATA[<article>
<blockquote class="messageText SelectQuoteContainer ugc baseHtml">
<img src="https://i.imgur.com/1scdTOu.jpg" class="bbCodeImage LbImage" alt="[​IMG]" data-url="https://i.imgur.com/1scdTOu.jpg" style=""><br>
<br>
<div class="bbCodeBlock bbCodeCode">
<div class="type">Code:</div>
<pre>General
Complete name                  : C:\Users\asus\Desktop\Burak Yeter - Friday Night.mp4
Format                         : MPEG-4
Format profile                 : Base Media
Codec ID                       : isom (isom/iso2/avc1/mp41)
File size                      : 195 MiB
Duration                       : 2 min 42 s
Overall bit rate               : 10.0 Mb/s
Frame rate                     : 25.000 FPS
Movie name                     : Friday Night
Performer                      : Burak Yeter
Genre                          : Dance
ContentType                    : Music Video
Recorded date                  : 2019-08-30 07:00:00 UTC
Writing application            : Lavf57.29.101
Copyright                      : ℗ 2019 Time S.p.A. under excl. lic. from Connection Records B.V.

Video
ID                             : 1
Format                         : AVC
Format/Info                    : Advanced Video Codec
Format profile                 : High@L4.1
Format settings                : CABAC / 4 Ref Frames
Format settings, CABAC         : Yes
Format settings, Reference fra : 4 frames
Codec ID                       : avc1
Codec ID/Info                  : Advanced Video Coding
Duration                       : 2 min 42 s
Bit rate                       : 9 792 kb/s
Width                          : 1 920 pixels
Height                         : 1 080 pixels
Display aspect ratio           : 16:9
Frame rate mode                : Constant
Frame rate                     : 25.000 FPS
Color space                    : YUV
Chroma subsampling             : 4:2:0
Bit depth                      : 8 bits
Scan type                      : Progressive
Bits/(Pixel*Frame)             : 0.189
Stream size                    : 190 MiB (97%)
Color range                    : Limited
Color primaries                : BT.709
Transfer characteristics       : BT.709
Matrix coefficients            : BT.709
Codec configuration box        : avcC

Audio
ID                             : 2
Format                         : AAC LC
Format/Info                    : Advanced Audio Codec Low Complexity
Codec ID                       : mp4a-40-2
Duration                       : 2 min 42 s
Bit rate mode                  : Constant
Bit rate                       : 251 kb/s
Channel(s)                     : 2 channels
Channel layout                 : L R
Sampling rate                  : 48.0 kHz
Frame rate                     : 46.875 FPS (1024 SPF)
Compression mode               : Lossy
Stream size                    : 4.86 MiB (2%)
Default                        : Yes
Alternate group                : 1

</pre>
</div>
<div class="bbCodeBlock bbCodeVfcHH HiddenContent">
<div class="attribution type">Hidden Content:</div>
<blockquote>You must either reply or click 'Like' to see the hidden information contained here.</blockquote>
</div>
<div class="messageTextEndMarker">&nbsp;</div>
</blockquote>
</article>]]></description>
                <author><![CDATA[vitalya3]]></author>
                </item>

                
                <item>
                <title><![CDATA[【Apple Music】WEB-RiP - Rihanna -  Take A Bow (1080з)]]></title>
                <link><![CDATA[https://sharemania.us/threads/rihanna-take-a-bow-1080%D0%B7.224636/]]></link>
                <description><![CDATA[<article>
<blockquote class="messageText SelectQuoteContainer ugc baseHtml">
<img src="https://i.imgur.com/A7gRqEo.jpg" class="bbCodeImage LbImage" alt="[​IMG]" data-url="https://i.imgur.com/A7gRqEo.jpg" style=""><br>
<br>
<div class="bbCodeBlock bbCodeCode">
<div class="type">Code:</div>
<pre>General
Complete name                  : C:\Users\asus\Desktop\Rihanna -  Take A Bow.mp4
Format                         : MPEG-4
Format profile                 : Base Media
Codec ID                       : isom (isom/iso2/avc1/mp41)
File size                      : 192 MiB
Duration                       : 3 min 49 s
Overall bit rate               : 7 026 kb/s
Frame rate                     : 23.976 FPS
Movie name                     : Take A Bow (Bonus Video)
Album                          : Good Girl Gone Bad: Reloaded
Album/Performer                : Rihanna
Part/Position                  : 1
Part/Total                     : 1
Track name/Position            : 16
Track name/Total               : 17
Performer                      : Rihanna
Genre                          : Pop
ContentType                    : Music Video
Recorded date                  : 2016-10-28 07:00:00 UTC
Writing application            : Lavf57.29.101
Copyright                      : ℗ 2008 Def Jam Recordings, a division of UMG Recordings, Inc.

Video
ID                             : 1
Format                         : AVC
Format/Info                    : Advanced Video Codec
Format profile                 : High@L4
Format settings                : CABAC / 5 Ref Frames
Format settings, CABAC         : Yes
Format settings, Reference fra : 5 frames
Codec ID                       : avc1
Codec ID/Info                  : Advanced Video Coding
Duration                       : 3 min 49 s
Bit rate                       : 6 759 kb/s
Width                          : 1 920 pixels
Height                         : 812 pixels
Display aspect ratio           : 2.35:1
Frame rate mode                : Constant
Frame rate                     : 23.976 (24000/1001) FPS
Color space                    : YUV
Chroma subsampling             : 4:2:0
Bit depth                      : 8 bits
Scan type                      : Progressive
Bits/(Pixel*Frame)             : 0.181
Stream size                    : 185 MiB (96%)
Language                       : English
Color range                    : Limited
Color primaries                : BT.709
Transfer characteristics       : BT.709
Matrix coefficients            : BT.709
Codec configuration box        : avcC

Audio
ID                             : 2
Format                         : AAC LC
Format/Info                    : Advanced Audio Codec Low Complexity
Codec ID                       : mp4a-40-2
Duration                       : 3 min 49 s
Bit rate mode                  : Constant
Bit rate                       : 265 kb/s
Channel(s)                     : 2 channels
Channel layout                 : L R
Sampling rate                  : 48.0 kHz
Frame rate                     : 46.875 FPS (1024 SPF)
Compression mode               : Lossy
Stream size                    : 7.22 MiB (4%)
Default                        : Yes
Alternate group                : 1

</pre>
</div>
<div class="bbCodeBlock bbCodeVfcHH HiddenContent">
<div class="attribution type">Hidden Content:</div>
<blockquote>You must either reply or click 'Like' to see the hidden information contained here.</blockquote>
</div>
<div class="messageTextEndMarker">&nbsp;</div>
</blockquote>
</article>]]></description>
                <author><![CDATA[vitalya3]]></author>
                </item>

                
                <item>
                <title><![CDATA[【Apple Music】WEB-RiP - Clean Bandit - Solo (feat. Demi Lovato) (1080p)]]></title>
                <link><![CDATA[https://sharemania.us/threads/clean-bandit-solo-feat-demi-lovato-1080p.224638/]]></link>
                <description><![CDATA[<article>
<blockquote class="messageText SelectQuoteContainer ugc baseHtml">
<img src="https://i.imgur.com/aiQ4TYH.jpg" class="bbCodeImage LbImage" alt="[​IMG]" data-url="https://i.imgur.com/aiQ4TYH.jpg" style=""><br>
<br>
<div class="bbCodeBlock bbCodeCode">
<div class="type">Code:</div>
<pre>General
Complete name                  : C:\Users\asus\Desktop\Clean Bandit - Solo (feat. Demi Lovato).mp4
Format                         : MPEG-4
Format profile                 : Base Media
Codec ID                       : isom (isom/iso2/avc1/mp41)
File size                      : 185 MiB
Duration                       : 3 min 44 s
Overall bit rate               : 6 893 kb/s
Frame rate                     : 23.976 FPS
Movie name                     : Solo (feat. Demi Lovato)
Performer                      : Clean Bandit
Genre                          : Dance
ContentType                    : Music Video
Recorded date                  : 2018-05-31 07:00:00 UTC
Writing application            : Lavf57.29.101
Copyright                      : ℗ 2018 Atlantic Records UK, a Warner Music Group company

Video
ID                             : 1
Format                         : AVC
Format/Info                    : Advanced Video Codec
Format profile                 : High@L4
Format settings                : CABAC / 5 Ref Frames
Format settings, CABAC         : Yes
Format settings, Reference fra : 5 frames
Codec ID                       : avc1
Codec ID/Info                  : Advanced Video Coding
Duration                       : 3 min 44 s
Bit rate                       : 6 639 kb/s
Width                          : 1 920 pixels
Height                         : 800 pixels
Display aspect ratio           : 2.40:1
Frame rate mode                : Variable
Frame rate                     : 23.976 (23976/1000) FPS
Minimum frame rate             : 23.976 FPS
Maximum frame rate             : 2 000.000 FPS
Color space                    : YUV
Chroma subsampling             : 4:2:0
Bit depth                      : 8 bits
Scan type                      : Progressive
Bits/(Pixel*Frame)             : 0.180
Stream size                    : 178 MiB (96%)
Color range                    : Limited
Color primaries                : BT.709
Transfer characteristics       : BT.709
Matrix coefficients            : BT.709
Codec configuration box        : avcC

Audio
ID                             : 2
Format                         : AAC LC
Format/Info                    : Advanced Audio Codec Low Complexity
Codec ID                       : mp4a-40-2
Duration                       : 3 min 44 s
Bit rate mode                  : Constant
Bit rate                       : 250 kb/s
Channel(s)                     : 2 channels
Channel layout                 : L R
Sampling rate                  : 48.0 kHz
Frame rate                     : 46.875 FPS (1024 SPF)
Compression mode               : Lossy
Stream size                    : 6.69 MiB (4%)
Default                        : Yes
Alternate group                : 1

</pre>
</div>
<div class="bbCodeBlock bbCodeVfcHH HiddenContent">
<div class="attribution type">Hidden Content:</div>
<blockquote>You must either reply or click 'Like' to see the hidden information contained here.</blockquote>
</div>
<div class="messageTextEndMarker">&nbsp;</div>
</blockquote>
</article>]]></description>
                <author><![CDATA[vitalya3]]></author>
                </item>

                
                <item>
                <title><![CDATA[【Music Videos】Macklemore &amp; Ryan Lewis Feat. Ray Dalton -Cant Hold Us 1080p (RoadHouse Show Edit Reel V-Edit-Trumpet In)(Extended)(vjstreet Pool)]]></title>
                <link><![CDATA[https://sharemania.us/threads/macklemore-ryan-lewis-feat-ray-dalton-cant-hold-us-1080p-roadhouse-show-edit-reel-v-edit-trumpet-in-extended-vjstreet-pool.224640/]]></link>
                <description><![CDATA[<article>
<blockquote class="messageText SelectQuoteContainer ugc baseHtml">
<img src="https://i.imgur.com/wXGvYRT.jpg" class="bbCodeImage LbImage" alt="[​IMG]" data-url="https://i.imgur.com/wXGvYRT.jpg" style=""> <br>
<img src="https://i.imgur.com/RdHdSFF.jpg" class="bbCodeImage LbImage" alt="[​IMG]" data-url="https://i.imgur.com/RdHdSFF.jpg" style=""><br>
<b>Macklemore &amp; Ryan Lewis Feat. Ray Dalton -Cant Hold Us (RoadHouse Show Edit Reel V-Edit) Trumpet In (Extended)</b><br>
BPM 75<br>
Ripped From <a href="https://www.vjstreet.com/" target="_blank" class="externalLink" rel="nofollow">vjstreet</a><br>
<b><br>
[/URL]
<div class="bbCodeBlock bbCodeVfcHH HiddenContent">
<div class="attribution type">Hidden Content:</div>
<blockquote>You must reply before you can see the hidden data contained here.</blockquote>
</div></b>
<div class="messageTextEndMarker">&nbsp;</div>
</blockquote>
</article>]]></description>
                <author><![CDATA[gamerfronts]]></author>
                </item>

                
                <item>
                <title><![CDATA[【Requests】[REQ AUD] - Mylène Farmer – Désenchantée (Remix Club)]]></title>
                <link><![CDATA[https://sharemania.us/threads/myl%C3%A8ne-farmer-%E2%80%93-d%C3%A9senchant%C3%A9e-remix-club.224637/]]></link>
                <description><![CDATA[<article>
<blockquote class="messageText SelectQuoteContainer ugc baseHtml">
Hello, hoping someone can help me with this file in 24-Bit FLAC: <a href="https://www.discogs.com/release/22948091-Myl%C3%A8ne-Farmer-D%C3%A9senchant%C3%A9e-Remix-Club" target="_blank" class="externalLink" rel="nofollow">https://www.discogs.com/release/22948091-Mylène-Farmer-Désenchantée-Remix-Club</a> I did do search and was unable to find it posted here. <br>
Thanks in advance!<img src="https://i.imgur.com/FfHygod.jpg" class="bbCodeImage LbImage" alt="[​IMG]" data-url="https://i.imgur.com/FfHygod.jpg" style="">
<div class="messageTextEndMarker">&nbsp;</div>
</blockquote>
</article>]]></description>
                <author><![CDATA[EuroLover71]]></author>
                </item>

                
                <item>
                <title><![CDATA[【Apple Music】WEB-RiP - Burak Yeter - Tuesday (feat. Danelle Sandoval) (1080p)]]></title>
                <link><![CDATA[https://sharemania.us/threads/burak-yeter-tuesday-feat-danelle-sandoval-1080p.224641/]]></link>
                <description><![CDATA[<article>
<blockquote class="messageText SelectQuoteContainer ugc baseHtml">
<img src="https://i.imgur.com/nDTkVYh.jpg" class="bbCodeImage LbImage" alt="[​IMG]" data-url="https://i.imgur.com/nDTkVYh.jpg" style=""><br>
<br>
<div class="bbCodeBlock bbCodeCode">
<div class="type">Code:</div>
<pre>General
Complete name                  : C:\Users\asus\Desktop\Burak Yeter - Tuesday (feat. Danelle Sandoval).mp4
Format                         : MPEG-4
Format profile                 : Base Media
Codec ID                       : isom (isom/iso2/avc1/mp41)
File size                      : 149 MiB
Duration                       : 3 min 10 s
Overall bit rate               : 6 552 kb/s
Frame rate                     : 25.000 FPS
Movie name                     : Tuesday (feat. Danelle Sandoval)
Performer                      : Burak Yeter
Genre                          : Dance
ContentType                    : Music Video
Recorded date                  : 2016-07-16 07:00:00 UTC
Writing application            : Lavf57.29.101
Copyright                      : ℗ 2016 KISS KOALA

Video
ID                             : 1
Format                         : AVC
Format/Info                    : Advanced Video Codec
Format profile                 : High@L4
Format settings                : CABAC / 4 Ref Frames
Format settings, CABAC         : Yes
Format settings, Reference fra : 4 frames
Codec ID                       : avc1
Codec ID/Info                  : Advanced Video Coding
Duration                       : 3 min 10 s
Bit rate                       : 6 283 kb/s
Width                          : 1 920 pixels
Height                         : 1 080 pixels
Display aspect ratio           : 16:9
Frame rate mode                : Constant
Frame rate                     : 25.000 FPS
Color space                    : YUV
Chroma subsampling             : 4:2:0
Bit depth                      : 8 bits
Scan type                      : Progressive
Bits/(Pixel*Frame)             : 0.121
Stream size                    : 142 MiB (96%)
Color range                    : Limited
Color primaries                : BT.709
Transfer characteristics       : BT.709
Matrix coefficients            : BT.709
Codec configuration box        : avcC

Audio
ID                             : 2
Format                         : AAC LC
Format/Info                    : Advanced Audio Codec Low Complexity
Codec ID                       : mp4a-40-2
Duration                       : 3 min 10 s
Bit rate mode                  : Constant
Bit rate                       : 265 kb/s
Channel(s)                     : 2 channels
Channel layout                 : L R
Sampling rate                  : 48.0 kHz
Frame rate                     : 46.875 FPS (1024 SPF)
Compression mode               : Lossy
Stream size                    : 6.01 MiB (4%)
Default                        : Yes
Alternate group                : 1

</pre>
</div>
<div class="bbCodeBlock bbCodeVfcHH HiddenContent">
<div class="attribution type">Hidden Content:</div>
<blockquote>You must either reply or click 'Like' to see the hidden information contained here.</blockquote>
</div>
<div class="messageTextEndMarker">&nbsp;</div>
</blockquote>
</article>]]></description>
                <author><![CDATA[vitalya3]]></author>
                </item>

                </channel></rss>